<?xml version="1.0" encoding="UTF-8"?>
<svg id="_レイヤー_2" data-name="レイヤー 2" xmlns="http://www.w3.org/2000/svg" xmlns:xlink="http://www.w3.org/1999/xlink" viewBox="0 0 2000 1250">
  <defs>
    <style>
      .cls-1 {
        clip-path: url(#clippath);
      }

      .cls-2 {
        fill: none;
      }

      .cls-2, .cls-3, .cls-4, .cls-5 {
        stroke-width: 0px;
      }

      .cls-3 {
        fill: #808990;
      }

      .cls-6 {
        clip-path: url(#clippath-1);
      }

      .cls-7 {
        clip-path: url(#clippath-2);
      }

      .cls-8, .cls-5 {
        fill: #efefef;
      }

      .cls-4 {
        fill: #fff;
      }
    </style>
    <clipPath id="clippath">
      <rect class="cls-2" width="2000" height="1250"/>
    </clipPath>
    <clipPath id="clippath-1">
      <rect class="cls-5" y="-225.03" width="2000" height="1482.44"/>
    </clipPath>
    <clipPath id="clippath-2">
      <path class="cls-2" d="M604.92,284.41h746.16c12.53,0,22.69,10.17,22.69,22.69v473.21c0,12.53-10.17,22.69-22.69,22.69h-746.16c-12.53,0-22.69-10.17-22.69-22.69v-473.21c0-12.53,10.17-22.69,22.69-22.69Z"/>
    </clipPath>
  </defs>
  <g id="_レイヤー_2-2" data-name="レイヤー 2">
    <g class="cls-1">
      <g>
        <g>
          <rect class="cls-8" y="-225.03" width="2000" height="1482.44"/>
          <g class="cls-6">
            <rect class="cls-4" x="1642.07" y="940.47" width="673.31" height="369.58" transform="translate(1375.23 -1069.59) rotate(45)"/>
            <path class="cls-4" d="M1874.25,1303.5v-544.37l-14.67-14.67-473.27-472.71-.02-.02c-9.04-9.03-21.53-14.62-35.33-14.62h-746.16c-12,0-23.01,4.23-31.62,11.27-11.21,9.17-18.37,23.11-18.37,38.72v473.21c0,13.79,5.59,26.28,14.62,35.33,0,0,.01.01.02.02l472.57,473.14.02.02,14.66,14.68h817.55Z"/>
          </g>
        </g>
        <g>
          <g>
            <path class="cls-3" d="M1401.07,780.32c0,27.61-22.38,49.99-49.99,49.99h-746.16c-27.61,0-49.99-22.38-49.99-49.99v-473.21c0-27.61,22.38-49.99,49.99-49.99h746.16c27.61,0,49.99,22.38,49.99,49.99v473.21ZM604.92,284.41c-12.53,0-22.69,10.16-22.69,22.69v473.21c0,12.53,10.16,22.69,22.69,22.69h746.16c12.53,0,22.69-10.16,22.69-22.69v-473.21c0-12.53-10.16-22.69-22.69-22.69h-746.16Z"/>
            <g class="cls-7">
              <g>
                <g>
                  <path class="cls-5" d="M1318.3,944.04l-300.59-357.13c-.21-.25-.42-.48-.65-.7h0s-131.06-131.02-131.06-131.02h0c-3.98-3.98-10.33-4.23-14.6-.73-.52.43-1.01.91-1.46,1.45l-281.64,335.3c-3.95,4.7-3.07,11.05.67,14.8h0s130.99,131.1,130.99,131.1h0s0,0,0,0c1.89,1.89,4.51,3.12,7.62,3.14l590.72,3.8Z"/>
                  <path class="cls-3" d="M1109.64,720.84l-48.44,47.65c-6.12,6.02-14.08,9.02-22.04,9.02s-16.25-3.13-22.41-9.39c-12.17-12.37-12.01-32.27.36-44.45l51.92-51.07-182.4-216.71c-4.37-5.19-12.35-5.18-16.71,0l-281.64,335.3c-5.95,7.08-.95,17.88,8.29,17.94l566.92,3.65c9.31.06,14.42-10.82,8.42-17.95l-62.29-74Z"/>
                </g>
                <g>
                  <path class="cls-5" d="M1516.46,944.02l-18.81-18.81h0l-131.1-131.08h0s-.05-.05-.07-.07l-180.45-177.34c-4.01-3.94-10.29-4.16-14.55-.67-.26.21-.51.43-.75.67l-197.01,193.57,131.01,131.08,411.74,2.65Z"/>
                  <path class="cls-3" d="M973.7,810.29l197.01-193.57c4.25-4.17,11.06-4.17,15.3,0l180.45,177.34c6.99,6.87,2.08,18.77-7.72,18.7l-385.04-2.48Z"/>
                </g>
                <g>
                  <path class="cls-5" d="M1427.55,777.61c41.44,0,75.04-33.59,75.04-75.04,0-20.72-8.4-39.48-21.98-53.06h0s-273.53-273.49-273.53-273.49h0c-13.57-13.57-32.32-21.97-53.03-21.97-18,0-34.52,6.34-47.44,16.91-16.82,13.75-27.56,34.67-27.56,58.09,0,20.71,8.39,39.46,21.96,53.03,0,0,0,0,0,0l273.48,273.53h0c13.58,13.58,32.34,21.98,53.06,21.98Z"/>
                  <circle class="cls-3" cx="1154.04" cy="429.06" r="75" transform="translate(34.62 941.7) rotate(-45)"/>
                </g>
              </g>
            </g>
          </g>
          <g>
            <path class="cls-3" d="M593.35,975.24c-1.44-2.88-2.96-5.33-5.42-9.05l-21.83-32.91c-1.61-2.54-3.72-6.18-5.75-10.15q.08,1.18.34,4.32c.08,1.61.25,5.42.25,7.36v27.75c0,5.67.25,9.65.68,12.69h-12.35c.42-2.79.68-7.02.68-12.78v-43.66c0-4.4-.17-7.45-.68-10.91h13.2c.76,2.12,2.28,4.65,5.16,8.97l21.41,32.24c2.03,3.05,4.74,7.45,6.6,10.83-.34-3.3-.59-8.38-.59-11.93v-28.43c0-4.99-.17-8.46-.68-11.68h12.35c-.51,3.38-.68,6.51-.68,11.68v44.76c0,4.74.17,7.95.68,10.92h-13.37Z"/>
            <path class="cls-3" d="M615.94,951.04c0-15.74,9.81-25.81,25.21-25.81s25.04,9.98,25.04,25.64-9.9,25.98-24.96,25.98-25.3-9.98-25.3-25.81ZM626.86,951.04c0,10.41,5.42,16.84,14.21,16.84s14.21-6.35,14.21-16.67c0-10.92-5.16-17.18-14.13-17.18s-14.3,6.43-14.3,17.01Z"/>
            <path class="cls-3" d="M716.46,907.89c-.51,3.21-.68,5.84-.68,10.91v45.52c0,4.99.17,7.7.68,10.92h-12.86c.51-3.22.68-5.92.68-10.92v-45.52c0-5.25-.17-7.53-.68-10.91h12.86Z"/>
            <path class="cls-3" d="M727.63,975.24c.42-3.64.59-6.43.59-11v-26.57c0-5.33-.17-7.78-.59-11h11.34v4.32c0,.51,0,1.78-.08,3.13,2.45-5.16,8.71-8.46,15.74-8.46,4.57,0,8.29,1.27,10.91,3.81,1.52,1.35,2.2,2.45,3.22,5.08,2.88-3.81,4.48-5.33,7.11-6.68,2.79-1.52,5.67-2.2,9.48-2.2,5.42,0,9.81,1.69,12.69,4.82,2.79,3.05,3.98,6.85,3.98,12.86v20.9c0,4.74.17,7.53.68,11h-12.35c.51-3.47.68-6.01.68-11v-18.95c0-7.45-2.62-10.83-8.29-10.83-2.79,0-4.91.76-6.94,2.54-2.96,2.54-4.31,5.25-5.33,10.49v16.75c0,4.65.17,7.53.59,11h-12.18c.51-3.55.68-6.18.68-11v-18.95c0-7.11-2.71-10.66-8.21-10.66-3.55,0-6.43,1.44-8.71,4.4-1.86,2.45-2.71,4.4-3.64,8.46v16.75c0,4.57.17,7.11.59,11h-11.93Z"/>
            <path class="cls-3" d="M845.24,969.74c-3.38,3.21-5.5,4.4-8.97,5.33-2.45.68-5.16,1.02-7.87,1.02-10.32,0-16.58-5.33-16.58-14.21,0-5.92,3.72-11.25,9.56-13.71,5.5-2.29,11.76-3.13,23.86-3.38v-4.32c0-4.91-3.3-7.45-9.73-7.45-3.38,0-6.85.93-8.8,2.45-1.61,1.18-2.37,2.37-3.38,5.42l-10.83-1.95c1.95-4.91,3.47-7.11,6.68-9.39,4.15-3.05,8.88-4.32,16.16-4.32,8.12,0,13.03,1.44,16.67,4.99,2.88,2.71,3.98,5.92,3.98,11.68v22.76c0,4.48.17,6.77.68,10.58h-11.42v-5.5ZM845.24,952.14c-16.16.34-22.51,3.13-22.51,9.73,0,3.98,2.96,6.43,7.7,6.43,4.48,0,8.88-1.69,11.76-4.48,2.03-2.03,3.05-4.48,3.05-7.45v-4.23Z"/>
            <path class="cls-3" d="M874.18,977.18c3.3,4.57,7.02,6.43,13.11,6.43,6.51,0,11.51-2.28,13.88-6.35,1.44-2.54,2.03-5.5,2.2-11.25-4.23,5.33-9.22,7.7-16.58,7.7-13.45,0-22.08-9.22-22.08-23.69s8.88-24.11,22.59-24.11c7.53,0,12.52,2.29,16.16,7.45-.17-1.69-.17-1.86-.17-2.79v-3.89h11.34c-.42,3.64-.59,6.01-.59,10.58v28.34c0,10.15-2.2,16.67-7.11,20.81-4.23,3.47-11.25,5.42-19.97,5.42-9.9,0-15.48-2.28-21.24-8.8l8.46-5.84ZM879.68,961.95c2.12,2.28,5.75,3.81,8.97,3.81,4.65,0,9.39-2.71,11.76-6.68,1.61-2.62,2.37-5.75,2.37-9.65,0-5.42-1.69-9.65-5.08-12.52-2.37-1.95-5.16-3.05-8.21-3.05-8.46,0-13.71,6.35-13.71,16.42,0,4.99,1.35,9.14,3.89,11.68Z"/>
            <path class="cls-3" d="M934,953.75c.42,4.65,1.18,7.02,3.13,9.48,2.45,3.05,6.26,4.74,10.58,4.74s7.7-1.52,10.15-4.23c1.02-1.18,1.61-2.12,2.45-4.4l9.98,3.22c-1.95,4.06-3.05,5.67-5.16,7.78-4.4,4.31-10.32,6.51-17.43,6.51-14.98,0-24.45-9.98-24.45-25.81s9.39-25.89,23.86-25.89c9.9,0,17.68,4.91,21.07,13.37,1.61,4.06,2.2,7.11,2.45,12.86,0,.17,0,.42.17,2.37h-36.81ZM959.81,945.37c-.59-3.72-1.61-6.01-3.72-8.12-2.28-2.28-5.16-3.38-9.14-3.38-6.6,0-11.42,4.4-12.69,11.51h25.55Z"/>
            <path class="cls-3" d="M1055.67,975.24c-.51-2.79-1.44-6.43-2.37-8.88l-3.38-9.22h-27.08l-3.38,9.22c-1.52,4.06-1.86,5.33-2.54,8.88h-13.88c1.27-2.29,2.96-6.09,4.48-9.98l18.61-48.82c1.61-4.23,2.28-6.35,2.71-8.54h14.72c.42,2.03.93,3.38,2.88,8.54l18.78,48.82c2.12,5.42,3.13,7.78,4.32,9.98h-13.88ZM1037.82,922.36c-.34-.93-.59-1.95-1.52-4.74q-1.35,3.98-1.61,4.74l-8.8,25.04h20.98l-9.05-25.04Z"/>
            <path class="cls-3" d="M1090.71,975.24c-.51-2.29-.85-3.3-2.54-7.53l-12.95-32.15c-.93-2.2-2.28-5.33-3.98-8.88h12.95c.25,1.86,1.01,4.74,2.12,7.87l8.63,24.54c.51,1.35,1.27,3.89,1.78,5.67.59-1.86,1.27-3.98,1.86-5.67l8.63-24.54c1.35-3.98,1.78-5.5,2.12-7.87h12.86c-1.18,2.37-2.2,4.74-3.81,8.88l-13.03,32.15c-1.69,4.31-1.95,5.08-2.54,7.53h-12.1Z"/>
            <path class="cls-3" d="M1160.43,969.74c-3.38,3.21-5.5,4.4-8.97,5.33-2.45.68-5.16,1.02-7.87,1.02-10.32,0-16.58-5.33-16.58-14.21,0-5.92,3.72-11.25,9.56-13.71,5.5-2.29,11.76-3.13,23.86-3.38v-4.32c0-4.91-3.3-7.45-9.73-7.45-3.38,0-6.85.93-8.8,2.45-1.61,1.18-2.37,2.37-3.38,5.42l-10.83-1.95c1.95-4.91,3.47-7.11,6.68-9.39,4.15-3.05,8.88-4.32,16.16-4.32,8.12,0,13.03,1.44,16.67,4.99,2.88,2.71,3.98,5.92,3.98,11.68v22.76c0,4.48.17,6.77.68,10.58h-11.42v-5.5ZM1160.43,952.14c-16.16.34-22.51,3.13-22.51,9.73,0,3.98,2.96,6.43,7.7,6.43,4.48,0,8.88-1.69,11.76-4.48,2.03-2.03,3.05-4.48,3.05-7.45v-4.23Z"/>
            <path class="cls-3" d="M1194.19,907.89c-.42,3.3-.59,6.01-.59,11.08v45.27c0,4.48.17,7.28.59,11h-12.27c.42-3.64.59-6.09.59-11v-45.35c0-5.08-.17-7.78-.59-11h12.27Z"/>
            <path class="cls-3" d="M1217.29,907.89v10.75h-12.44v-10.75h12.44ZM1217.2,926.67c-.42,3.13-.59,5.92-.59,11.08v26.4c0,4.65.17,7.53.59,11.08h-12.35c.51-3.81.68-6.77.68-11v-26.57c0-4.65-.17-7.53-.68-11h12.35Z"/>
            <path class="cls-3" d="M1259.93,969.74c-3.38,3.21-5.5,4.4-8.97,5.33-2.45.68-5.16,1.02-7.87,1.02-10.32,0-16.58-5.33-16.58-14.21,0-5.92,3.72-11.25,9.56-13.71,5.5-2.29,11.76-3.13,23.86-3.38v-4.32c0-4.91-3.3-7.45-9.73-7.45-3.38,0-6.85.93-8.8,2.45-1.61,1.18-2.37,2.37-3.38,5.42l-10.83-1.95c1.95-4.91,3.47-7.11,6.68-9.39,4.15-3.05,8.88-4.32,16.16-4.32,8.12,0,13.03,1.44,16.67,4.99,2.88,2.71,3.98,5.92,3.98,11.68v22.76c0,4.48.17,6.77.68,10.58h-11.42v-5.5ZM1259.93,952.14c-16.16.34-22.51,3.13-22.51,9.73,0,3.98,2.96,6.43,7.7,6.43,4.48,0,8.88-1.69,11.76-4.48,2.03-2.03,3.05-4.48,3.05-7.45v-4.23Z"/>
            <path class="cls-3" d="M1281.42,975.24c.42-3.72.59-6.43.59-11.42v-44.59c0-4.32-.17-7.28-.59-11.34h11.93c-.42,3.55-.59,6.35-.59,11.42v8.46c0,1.35-.08,3.47-.17,6.35,4.4-5.92,9.65-8.54,17.43-8.54,14.21,0,22.59,9.22,22.59,24.96,0,8.29-2.37,15.06-6.94,19.8-3.98,4.06-9.39,6.09-16.25,6.09-7.78,0-12.61-2.45-16.84-8.38.08,1.1.08,2.03.08,3.05v4.15h-11.25ZM1308.75,934.46c-4.74,0-8.71,1.61-11.51,4.65-2.54,2.79-4.15,7.36-4.15,11.76,0,5.33,2.2,10.66,5.58,13.37,2.45,1.95,5.75,3.13,8.88,3.13,8.54,0,14.04-6.6,14.04-16.84s-5.08-16.08-12.86-16.08Z"/>
            <path class="cls-3" d="M1353.43,907.89c-.42,3.3-.59,6.01-.59,11.08v45.27c0,4.48.17,7.28.59,11h-12.27c.42-3.64.59-6.09.59-11v-45.35c0-5.08-.17-7.78-.59-11h12.27Z"/>
            <path class="cls-3" d="M1372.81,953.75c.42,4.65,1.18,7.02,3.13,9.48,2.45,3.05,6.26,4.74,10.58,4.74s7.7-1.52,10.15-4.23c1.02-1.18,1.61-2.12,2.45-4.4l9.98,3.22c-1.95,4.06-3.05,5.67-5.16,7.78-4.4,4.31-10.32,6.51-17.43,6.51-14.98,0-24.45-9.98-24.45-25.81s9.39-25.89,23.86-25.89c9.9,0,17.68,4.91,21.07,13.37,1.61,4.06,2.2,7.11,2.45,12.86,0,.17,0,.42.17,2.37h-36.8ZM1398.61,945.37c-.59-3.72-1.61-6.01-3.72-8.12-2.28-2.28-5.16-3.38-9.14-3.38-6.6,0-11.42,4.4-12.69,11.51h25.55Z"/>
          </g>
        </g>
      </g>
    </g>
  </g>
</svg>